<?xml version="1.0" encoding="UTF-8"?><svg id="a" xmlns="http://www.w3.org/2000/svg" xmlns:xlink="http://www.w3.org/1999/xlink" viewBox="0 0 30 30"><defs><style>.c{fill:#c40e13;}.d,.e{fill:#ea0303;}.f{clip-path:url(#b);}.g{fill:#d00100;}.g,.h,.i,.e{fill-rule:evenodd;}.j{fill:none;}.h,.k{fill:#ededed;}.i{fill:#0bb718;}</style><clipPath id="b"><circle class="j" cx="15" cy="15" r="15"/></clipPath></defs><g class="f"><g><polygon class="i" points="42.27 29.98 8.77 30 8.77 20.17 42.27 20.17 42.27 29.98"/><polygon class="g" points="42.27 20.17 8.77 20.17 8.77 .03 42.27 0 42.27 20.17"/><g><polygon class="h" points="-2.65 .03 8.77 .03 8.77 30 -2.73 30 -2.65 .03"/><polygon class="e" points=".91 5.59 .53 5.59 .53 5.15 .15 5.15 .15 4.7 -.3 4.7 -.3 5.15 -.75 5.15 -.75 5.59 -1.07 5.59 -1.07 6.23 -.75 6.23 -.75 6.68 -.3 6.68 -.3 7.13 .15 7.13 .15 6.68 .53 6.68 .53 6.23 .91 6.23 .91 5.59"/><polygon class="e" points="7.06 5.59 6.74 5.59 6.74 5.15 6.29 5.15 6.29 4.7 5.84 4.7 5.84 5.15 5.39 5.15 5.39 5.59 5.07 5.59 5.07 6.23 5.39 6.23 5.39 6.68 5.84 6.68 5.84 7.13 6.29 7.13 6.29 6.68 6.74 6.68 6.74 6.23 7.06 6.23 7.06 5.59"/><polygon class="e" points="4.95 5.59 4.56 5.59 4.56 5.15 4.11 5.15 4.11 4.7 3.67 4.7 3.67 5.15 3.28 5.15 3.28 5.59 3.15 5.59 2.9 5.59 2.83 5.59 2.83 5.15 2.39 5.15 2.39 4.7 1.94 4.7 1.94 5.15 1.49 5.15 1.49 5.59 1.17 5.59 1.17 6.23 1.49 6.23 1.49 6.68 1.94 6.68 1.94 7.13 2.39 7.13 2.39 6.68 2.83 6.68 2.83 6.23 2.9 6.23 3.15 6.23 3.28 6.23 3.28 6.68 3.67 6.68 3.67 7.13 4.11 7.13 4.11 6.68 4.56 6.68 4.56 6.23 4.95 6.23 4.95 5.59"/><polygon class="e" points="7.06 2.16 6.61 2.16 6.61 1.63 6.29 1.63 6.29 1.11 5.84 1.11 5.84 .66 5.46 .66 5.46 .17 4.37 .17 4.37 .66 3.99 .66 3.99 1.11 3.54 1.11 3.54 1.63 3.22 1.63 3.22 2.16 3.15 2.16 2.77 2.16 2.71 2.16 2.71 1.63 2.39 1.63 2.39 1.11 1.94 1.11 1.94 .66 1.62 .66 1.62 .17 .47 .17 .47 .66 .15 .66 .15 1.11 -.3 1.11 -.3 1.63 -.62 1.63 -.62 2.16 -1.07 2.16 -1.07 2.83 -.62 2.83 -.62 3.2 -.3 3.2 -.3 3.73 .15 3.73 .15 4.17 .47 4.17 .47 4.66 .72 4.66 .72 5.07 1.36 5.07 1.36 4.66 1.62 4.66 1.62 4.17 1.94 4.17 1.94 3.73 2.39 3.73 2.39 3.2 2.71 3.2 2.71 2.83 2.77 2.83 3.15 2.83 3.22 2.83 3.22 3.2 3.54 3.2 3.54 3.73 3.99 3.73 3.99 4.17 4.37 4.17 4.37 4.66 4.63 4.66 4.63 5.07 5.27 5.07 5.27 4.66 5.46 4.66 5.46 4.17 5.84 4.17 5.84 3.73 6.29 3.73 6.29 3.2 6.61 3.2 6.61 2.83 7.06 2.83 7.06 2.16"/><polygon class="e" points=".91 24.24 .53 24.24 .53 24.69 .15 24.69 .15 25.14 -.3 25.14 -.3 24.69 -.75 24.69 -.75 24.24 -1.07 24.24 -1.07 23.61 -.75 23.61 -.75 23.2 -.3 23.2 -.3 22.75 .15 22.75 .15 23.2 .53 23.2 .53 23.61 .91 23.61 .91 24.24"/><polygon class="e" points="7.06 24.24 6.74 24.24 6.74 24.69 6.29 24.69 6.29 25.14 5.84 25.14 5.84 24.69 5.39 24.69 5.39 24.24 5.07 24.24 5.07 23.61 5.39 23.61 5.39 23.2 5.84 23.2 5.84 22.75 6.29 22.75 6.29 23.2 6.74 23.2 6.74 23.61 7.06 23.61 7.06 24.24"/><polygon class="e" points="4.95 24.24 4.56 24.24 4.56 24.69 4.11 24.69 4.11 25.14 3.67 25.14 3.67 24.69 3.28 24.69 3.28 24.24 3.15 24.24 2.9 24.24 2.83 24.24 2.83 24.69 2.39 24.69 2.39 25.14 1.94 25.14 1.94 24.69 1.49 24.69 1.49 24.24 1.17 24.24 1.17 23.61 1.49 23.61 1.49 23.2 1.94 23.2 1.94 22.75 2.39 22.75 2.39 23.2 2.83 23.2 2.83 23.61 2.9 23.61 3.15 23.61 3.28 23.61 3.28 23.2 3.67 23.2 3.67 22.75 4.11 22.75 4.11 23.2 4.56 23.2 4.56 23.61 4.95 23.61 4.95 24.24"/><polygon class="e" points="7.06 27.68 6.61 27.68 6.61 28.21 6.29 28.21 6.29 28.73 5.84 28.73 5.84 29.18 5.46 29.18 5.46 29.66 4.37 29.66 4.37 29.18 3.99 29.18 3.99 28.73 3.54 28.73 3.54 28.21 3.22 28.21 3.22 27.68 3.15 27.68 2.77 27.68 2.71 27.68 2.71 28.21 2.39 28.21 2.39 28.73 1.94 28.73 1.94 29.18 1.62 29.18 1.62 29.66 .47 29.66 .47 29.18 .15 29.18 .15 28.73 -.3 28.73 -.3 28.21 -.62 28.21 -.62 27.68 -1.07 27.68 -1.07 27.01 -.62 27.01 -.62 26.64 -.3 26.64 -.3 26.11 .15 26.11 .15 25.66 .47 25.66 .47 25.18 .72 25.18 .72 24.77 1.36 24.77 1.36 25.18 1.62 25.18 1.62 25.66 1.94 25.66 1.94 26.11 2.39 26.11 2.39 26.64 2.71 26.64 2.71 27.01 2.77 27.01 3.15 27.01 3.22 27.01 3.22 26.64 3.54 26.64 3.54 26.11 3.99 26.11 3.99 25.66 4.37 25.66 4.37 25.18 4.63 25.18 4.63 24.77 5.27 24.77 5.27 25.18 5.46 25.18 5.46 25.66 5.84 25.66 5.84 26.11 6.29 26.11 6.29 26.64 6.61 26.64 6.61 27.01 7.06 27.01 7.06 27.68"/><polygon class="e" points="6.23 11.61 6.23 11.13 6.61 11.13 6.61 10.6 6.87 10.6 6.87 10.15 7.12 10.15 7.12 9.29 6.8 9.29 6.8 8.77 6.55 8.77 6.55 8.36 6.29 8.36 6.29 7.87 5.97 7.87 5.97 7.43 5.59 7.43 5.59 7.13 5.27 7.13 5.27 6.68 4.75 6.68 4.75 7.13 4.37 7.13 4.37 7.43 4.05 7.43 4.05 7.87 3.73 7.87 3.73 8.36 3.41 8.36 3.41 8.77 3.15 8.77 3.15 9.07 2.83 9.07 2.83 8.77 2.58 8.77 2.58 8.36 2.32 8.36 2.32 7.87 2 7.87 2 7.43 1.68 7.43 1.68 7.13 1.3 7.13 1.3 6.68 .79 6.68 .79 7.13 .4 7.13 .4 7.43 .08 7.43 .08 7.87 -.24 7.87 -.24 8.36 -.49 8.36 -.49 8.77 -.75 8.77 -.75 9.29 -1.13 9.29 -1.13 10.15 -.88 10.15 -.88 10.6 -.56 10.6 -.56 11.13 -.17 11.13 -.17 11.61 .34 11.61 .34 11.13 .72 11.13 .72 10.6 1.04 10.6 1.04 10.12 .53 10.12 .53 9.67 1.36 9.67 1.36 10.04 1.87 10.04 1.87 10.56 2.32 10.56 2.32 11.13 1.94 11.13 1.94 11.57 1.68 11.57 1.68 12.02 1.43 12.02 1.43 12.47 1.04 12.47 1.04 12.88 .79 12.88 .79 13.22 .4 13.22 .4 13.7 -.11 13.7 -.11 13.18 -.43 13.18 -.43 12.77 -.75 12.77 -.75 12.43 -1.07 12.43 -1.07 13.52 -.75 13.52 -.75 13.97 -.49 13.97 -.49 14.26 -.17 14.26 -.17 14.75 .15 14.75 .15 15.09 -.17 15.09 -.17 15.57 -.49 15.57 -.49 15.87 -.75 15.87 -.75 16.32 -1.07 16.32 -1.07 17.4 -.75 17.4 -.75 17.07 -.43 17.07 -.43 16.66 -.11 16.66 -.11 16.13 .4 16.13 .4 16.62 .79 16.62 .79 16.96 1.04 16.96 1.04 17.37 1.43 17.37 1.43 17.82 1.68 17.82 1.68 18.26 1.94 18.26 1.94 18.71 2.32 18.71 2.32 19.27 1.87 19.27 1.87 19.8 1.36 19.8 1.36 20.17 .53 20.17 .53 19.72 1.04 19.72 1.04 19.24 .72 19.24 .72 18.71 .34 18.71 .34 18.23 -.17 18.23 -.17 18.71 -.56 18.71 -.56 19.24 -.88 19.24 -.88 19.68 -1.13 19.68 -1.13 20.54 -.75 20.54 -.75 21.07 -.49 21.07 -.49 21.48 -.24 21.48 -.24 21.96 .08 21.96 .08 22.41 .4 22.41 .4 22.75 .79 22.75 .79 23.16 1.3 23.16 1.3 22.75 1.68 22.75 1.68 22.41 2 22.41 2 21.96 2.32 21.96 2.32 21.48 2.58 21.48 2.58 21.07 2.83 21.07 2.83 20.77 3.15 20.77 3.15 21.07 3.41 21.07 3.41 21.48 3.73 21.48 3.73 21.96 4.05 21.96 4.05 22.41 4.37 22.41 4.37 22.75 4.75 22.75 4.75 23.16 5.27 23.16 5.27 22.75 5.59 22.75 5.59 22.41 5.97 22.41 5.97 21.96 6.29 21.96 6.29 21.48 6.55 21.48 6.55 21.07 6.8 21.07 6.8 20.54 7.12 20.54 7.12 19.68 6.87 19.68 6.87 19.24 6.61 19.24 6.61 18.71 6.23 18.71 6.23 18.23 5.65 18.23 5.65 18.71 5.27 18.71 5.27 19.24 5.01 19.24 5.01 19.72 5.46 19.72 5.46 20.17 4.63 20.17 4.63 19.8 4.18 19.8 4.18 19.27 3.67 19.27 3.67 18.71 4.05 18.71 4.05 18.26 4.31 18.26 4.31 17.82 4.56 17.82 4.56 17.37 4.95 17.37 4.95 16.96 5.27 16.96 5.27 16.62 5.65 16.62 5.65 16.13 6.16 16.13 6.16 16.66 6.48 16.66 6.48 17.07 6.74 17.07 6.74 17.4 7.06 17.4 7.06 16.32 6.8 16.32 6.8 15.87 6.48 15.87 6.48 15.57 6.16 15.57 6.16 15.09 5.84 15.09 5.84 14.75 6.16 14.75 6.16 14.26 6.48 14.26 6.48 13.97 6.8 13.97 6.8 13.52 7.06 13.52 7.06 12.43 6.74 12.43 6.74 12.77 6.48 12.77 6.48 13.18 6.16 13.18 6.16 13.7 5.65 13.7 5.65 13.22 5.27 13.22 5.27 12.88 4.95 12.88 4.95 12.47 4.56 12.47 4.56 12.02 4.31 12.02 4.31 11.57 4.05 11.57 4.05 11.13 3.67 11.13 3.67 10.56 4.18 10.56 4.18 10.04 4.63 10.04 4.63 9.67 5.46 9.67 5.46 10.12 5.01 10.12 5.01 10.6 5.27 10.6 5.27 11.13 5.65 11.13 5.65 11.61 6.23 11.61"/><rect class="d" x="2.83" y="7.09" width=".38" height=".93"/><rect class="d" x="2.83" y="28.39" width=".38" height="1.12"/><rect class="d" x="2.83" y="25.1" width=".38" height=".93"/><rect class="d" x="2.83" y="21.74" width=".38" height=".93"/><rect class="d" x="6.8" y="11.09" width=".38" height=".64"/><rect class="d" x="6.8" y="7.28" width=".38" height=".63"/><rect class="d" x="6.8" y="3.69" width=".38" height=".64"/><rect class="d" x="6.8" y=".4" width=".38" height=".64"/><rect class="d" x="6.8" y="18.11" width=".38" height=".64"/><rect class="d" x="6.8" y="21.93" width=".38" height=".64"/><rect class="d" x="6.8" y="25.51" width=".38" height=".64"/><rect class="d" x="6.8" y="28.84" width=".38" height=".6"/><polygon class="h" points="1.81 2.19 1.49 2.19 1.49 1.63 1.17 1.63 1.17 1.26 .91 1.26 .91 1.63 .59 1.63 .59 2.19 .27 2.19 .27 2.79 .59 2.79 .59 3.2 .91 3.2 .91 3.65 1.17 3.65 1.17 3.2 1.49 3.2 1.49 2.79 1.81 2.79 1.81 2.19"/><rect class="k" x="-.24" y="5.67" width=".26" height=".52"/><rect class="k" x="2" y="5.67" width=".26" height=".52"/><rect class="k" x="3.73" y="5.67" width=".26" height=".52"/><rect class="k" x="5.97" y="5.67" width=".19" height=".52"/><polygon class="h" points="5.65 2.19 5.39 2.19 5.39 1.63 5.07 1.63 5.07 1.26 4.75 1.26 4.75 1.63 4.43 1.63 4.43 2.19 4.18 2.19 4.18 2.79 4.43 2.79 4.43 3.2 4.75 3.2 4.75 3.65 5.07 3.65 5.07 3.2 5.39 3.2 5.39 2.79 5.65 2.79 5.65 2.19"/><rect class="k" x="-.24" y="23.65" width=".26" height=".52"/><rect class="k" x="2" y="23.65" width=".26" height=".52"/><rect class="k" x="3.73" y="23.65" width=".26" height=".52"/><rect class="k" x="5.97" y="23.65" width=".19" height=".52"/><polygon class="h" points="3.73 12.62 3.73 13.07 3.98 13.07 3.98 13.4 4.24 13.4 4.24 13.74 4.63 13.74 4.63 14.12 5.2 14.12 5.2 15.72 4.63 15.72 4.63 16.1 4.24 16.1 4.24 16.43 3.98 16.43 3.98 16.77 3.73 16.77 3.73 17.22 3.47 17.22 3.47 17.67 3.28 17.67 3.28 18.11 2.71 18.11 2.71 17.67 2.58 17.67 2.58 17.22 2.26 17.22 2.26 16.77 2 16.77 2 16.43 1.75 16.43 1.75 16.1 1.36 16.1 1.36 15.72 .85 15.72 .85 14.12 1.36 14.12 1.36 13.74 1.75 13.74 1.75 13.4 2 13.4 2 13.07 2.26 13.07 2.26 12.62 2.58 12.62 2.58 12.17 2.71 12.17 2.71 11.72 3.28 11.72 3.28 12.17 3.47 12.17 3.47 12.62 3.73 12.62"/><rect class="d" x="2.83" y=".25" width=".38" height="1.08"/><rect class="d" x="2.83" y="3.73" width=".38" height=".93"/><rect class="c" x=".85" y="2.16" width=".38" height=".6"/><rect class="c" x="4.75" y="2.16" width=".32" height=".6"/><polygon class="e" points="3.54 14.75 3.54 14.45 3.92 14.45 3.92 13.52 3.47 13.52 3.47 13.89 3.22 13.89 3.22 14.34 2.83 14.34 2.83 13.89 2.51 13.89 2.51 13.52 2.13 13.52 2.13 14.45 2.45 14.45 2.45 14.75 2.64 14.75 2.64 15.12 2.45 15.12 2.45 15.42 2.13 15.42 2.13 16.32 2.51 16.32 2.51 15.98 2.83 15.98 2.83 15.5 3.22 15.5 3.22 15.98 3.47 15.98 3.47 16.32 3.92 16.32 3.92 15.42 3.54 15.42 3.54 15.12 3.41 15.12 3.41 14.75 3.54 14.75"/><rect class="d" x="1.43" y="14.6" width=".38" height=".64"/><rect class="c" x="2.83" y="12.66" width=".38" height=".64"/><rect class="d" x="4.24" y="14.6" width=".38" height=".64"/><rect class="d" x="2.83" y="16.58" width=".38" height=".64"/><polygon class="h" points="1.81 27.61 1.49 27.61 1.49 28.21 1.17 28.21 1.17 28.58 .91 28.58 .91 28.21 .59 28.21 .59 27.61 .27 27.61 .27 27.01 .59 27.01 .59 26.64 .91 26.64 .91 26.19 1.17 26.19 1.17 26.64 1.49 26.64 1.49 27.01 1.81 27.01 1.81 27.61"/><polygon class="h" points="5.65 27.61 5.39 27.61 5.39 28.21 5.07 28.21 5.07 28.58 4.75 28.58 4.75 28.21 4.43 28.21 4.43 27.61 4.18 27.61 4.18 27.01 4.43 27.01 4.43 26.64 4.75 26.64 4.75 26.19 5.07 26.19 5.07 26.64 5.39 26.64 5.39 27.01 5.65 27.01 5.65 27.61"/><rect class="d" x=".85" y="27.08" width=".38" height=".6"/><rect class="d" x="4.75" y="27.08" width=".32" height=".6"/></g></g></g></svg>