<svg width="18" height="18" viewBox="0 0 18 18" fill="none" xmlns="http://www.w3.org/2000/svg">
<path d="M4.40625 18V6.32031H0.773438V18H4.40625ZM2.57031 4.75781C3.74219 4.75781 4.67969 3.78125 4.67969 2.60938C4.67969 1.47656 3.74219 0.539062 2.57031 0.539062C1.4375 0.539062 0.5 1.47656 0.5 2.60938C0.5 3.78125 1.4375 4.75781 2.57031 4.75781ZM17.9609 18H18V11.5938C18 8.46875 17.2969 6.04688 13.625 6.04688C11.8672 6.04688 10.6953 7.02344 10.1875 7.92188H10.1484V6.32031H6.67188V18H10.3047V12.2188C10.3047 10.6953 10.5781 9.25 12.4531 9.25C14.3281 9.25 14.3672 10.9688 14.3672 12.3359V18H17.9609Z" fill="white"/>
</svg>
