<?xml version="1.0" encoding="UTF-8"?><svg id="a" xmlns="http://www.w3.org/2000/svg" xmlns:xlink="http://www.w3.org/1999/xlink" viewBox="0 0 30 30"><defs><style>.c{fill:#cc0b1b;}.d{fill:#2c4db5;}.e{clip-path:url(#b);}.f{fill:none;}.g{fill:#ededed;}</style><clipPath id="b"><circle class="f" cx="15" cy="15.09" r="15"/></clipPath></defs><g class="e"><g><rect class="g" x="-6.56" y=".09" width="45" height="30"/><path class="c" d="M-6.56,27.78H38.44v2.31H-6.56v-2.31ZM-6.56,.09H38.44V2.39H-6.56V.09Zm0,4.62H38.44v2.31H-6.56v-2.31Zm0,4.62H38.44v2.31H-6.56v-2.31Zm0,4.62H38.44v2.31H-6.56v-2.31Zm0,4.62H38.44v2.31H-6.56v-2.31Zm0,4.62H38.44v2.31H-6.56v-2.31Z"/><rect class="d" x="-6.56" y=".09" width="22.8" height="16.15"/><path class="g" d="M14.5,4.64l-.21-.64-.21,.64h-.67l.54,.39-.21,.64,.54-.39,.54,.39-.21-.64,.54-.39h-.67ZM-4.27,1.79l.54-.4h-.67l-.21-.64-.21,.64h-.67l.54,.4-.21,.64,.54-.39,.54,.39-.21-.64ZM-.49,1.79L.05,1.4H-.62l-.21-.64-.21,.64h-.67l.54,.4-.21,.64,.54-.39,.54,.39-.21-.64Zm3.78,0l.54-.39h-.67l-.21-.64-.21,.64h-.67l.54,.4-.21,.64,.54-.39,.54,.39-.21-.64Zm3.78,0l.54-.4h-.67l-.21-.64-.21,.64h-.67l.54,.4-.21,.64,.54-.39,.54,.39-.21-.64ZM-2.28,13.05l.54-.39h-.67l-.21-.64-.21,.64h-.67l.54,.39-.21,.64,.54-.39,.54,.39-.21-.64Zm-.08-3.15l.54-.39h-.67l-.21-.64-.21,.64h-.67l.54,.39-.21,.64,.54-.4,.54,.4-.21-.64Zm.02-3.13l.54-.39h-.67l-.21-.64-.21,.64h-.67l.54,.39-.21,.64,.54-.39,.54,.39-.21-.64ZM10.85,1.79l.54-.4h-.67l-.21-.64-.21,.64h-.67l.54,.4-.21,.64,.54-.39,.54,.39-.21-.64Zm3.78,0l.54-.4h-.67l-.21-.64-.21,.64h-.67l.54,.4-.21,.64,.54-.39,.54,.39-.21-.64ZM1.44,6.78l.54-.39h-.67l-.21-.64-.21,.64H.23l.54,.39-.21,.64,.54-.39,.54,.39-.21-.64Zm-.02,3.13l.54-.39h-.67l-.21-.64-.21,.64H.21l.54,.39-.21,.64,.54-.4,.54,.4-.21-.64Zm.08,3.15l.54-.39h-.67l-.21-.64-.21,.64H.29l.54,.39-.21,.64,.54-.39,.54,.39-.21-.64Zm3.78,0l.54-.39h-.67l-.21-.64-.21,.64h-.67l.54,.39-.21,.64,.54-.39,.54,.39-.21-.64Zm-.08-3.15l.54-.39h-.67l-.21-.64-.21,.64h-.67l.54,.39-.21,.64,.54-.4,.54,.4-.21-.64Zm.02-3.13l.54-.39h-.67l-.21-.64-.21,.64h-.67l.54,.39-.21,.64,.54-.39,.54,.39-.21-.64ZM-2.38,3.41l.54-.39h-.67l-.21-.64-.21,.64h-.67l.54,.39-.21,.64,.54-.39,.54,.39-.21-.64Zm3.78,0l.54-.39h-.67l-.21-.64-.21,.64H.18l.54,.39-.21,.64,.54-.39,.54,.39-.21-.64Zm7.61,3.36l.54-.39h-.67l-.21-.64-.21,.64h-.67l.54,.39-.21,.64,.54-.39,.54,.39-.21-.64Zm-.02,3.13l.54-.39h-.67l-.21-.64-.21,.64h-.67l.54,.39-.21,.64,.54-.39,.54,.39-.21-.64Zm.07,3.15l.54-.39h-.67l-.21-.64-.21,.64h-.67l.54,.39-.21,.64,.54-.39,.54,.39-.21-.64Zm3.78,0l.54-.39h-.67l-.21-.64-.21,.64h-.67l.54,.39-.21,.64,.54-.39,.54,.39-.21-.64Zm-.08-3.15l.54-.39h-.67l-.21-.64-.21,.64h-.67l.54,.39-.21,.64,.54-.4,.54,.4-.21-.64Zm.02-3.13l.54-.39h-.67l-.21-.64-.21,.64h-.67l.54,.39-.21,.64,.54-.39,.54,.39-.21-.64ZM5.18,3.41l.54-.39h-.67l-.21-.64-.21,.64h-.67l.54,.39-.21,.64,.54-.39,.54,.39-.21-.64Zm3.78,0l.54-.39h-.67l-.21-.64-.21,.64h-.67l.54,.39-.21,.64,.54-.39,.54,.39-.21-.64Zm3.78,0l.54-.39h-.67l-.21-.64-.21,.64h-.67l.54,.39-.21,.64,.54-.39,.54,.39-.21-.64ZM-4.17,14.67l.54-.39h-.67l-.21-.64-.21,.64h-.67l.54,.39-.21,.64,.54-.39,.54,.39-.21-.64Zm-.07-3.15l.54-.39h-.67l-.21-.64-.21,.64h-.67l.54,.39-.21,.64,.54-.4,.54,.4-.21-.64Zm.02-3.13l.54-.39h-.67l-.21-.64-.21,.64h-.67l.54,.39-.21,.64,.54-.39,.54,.39-.21-.64Zm3.78,0l.54-.39H-.57l-.21-.64-.21,.64h-.67l.54,.39-.21,.64,.54-.39,.54,.39-.21-.64Zm-.02,3.13l.54-.39H-.59l-.21-.64-.21,.64h-.67l.54,.39-.21,.64,.54-.4,.54,.4-.21-.64Zm.08,3.15l.54-.39H-.52l-.21-.64-.21,.64h-.67l.54,.39-.21,.64,.54-.39,.54,.39-.21-.64Zm3.78,0l.54-.39h-.67l-.21-.64-.21,.64h-.67l.54,.39-.21,.64,.54-.39,.54,.39-.21-.64Zm-.07-3.15l.54-.39h-.67l-.21-.64-.21,.64h-.67l.54,.39-.21,.64,.54-.4,.54,.4-.21-.64Zm.02-3.13l.54-.39h-.67l-.21-.64-.21,.64h-.67l.54,.39-.21,.64,.54-.39,.54,.39-.21-.64Zm-7.61-3.37l.54-.39h-.67l-.21-.64-.21,.64h-.67l.54,.39-.21,.64,.54-.39,.54,.39-.21-.64ZM-.49,5.03L.05,4.64H-.62l-.21-.64-.21,.64h-.67l.54,.39-.21,.64,.54-.39,.54,.39-.21-.64Zm7.61,3.37l.54-.39h-.67l-.21-.64-.21,.64h-.67l.54,.39-.21,.64,.54-.39,.54,.39-.21-.64Zm-.02,3.13l.54-.39h-.67l-.21-.64-.21,.64h-.67l.54,.39-.21,.64,.54-.4,.54,.4-.21-.64Zm.07,3.15l.54-.39h-.67l-.21-.64-.21,.64h-.67l.54,.39-.21,.64,.54-.39,.54,.39-.21-.64Zm3.78,0l.54-.39h-.67l-.21-.64-.21,.64h-.67l.54,.39-.21,.64,.54-.39,.54,.39-.21-.64Zm3.78,0l.54-.39h-.67l-.21-.64-.21,.64h-.67l.54,.39-.21,.64,.54-.39,.54,.39-.21-.64Zm-3.86-3.15l.54-.39h-.67l-.21-.64-.21,.64h-.67l.54,.39-.21,.64,.54-.4,.54,.4-.21-.64Zm3.78,0l.54-.39h-.67l-.21-.64-.21,.64h-.67l.54,.39-.21,.64,.54-.4,.54,.4-.21-.64Zm-3.76-3.13l.54-.39h-.67l-.21-.64-.21,.64h-.67l.54,.39-.21,.64,.54-.39,.54,.39-.21-.64Zm3.78,0l.54-.39h-.67l-.21-.64-.21,.64h-.67l.54,.39-.21,.64,.54-.39,.54,.39-.21-.64ZM3.29,5.03l.54-.39h-.67l-.21-.64-.21,.64h-.67l.54,.39-.21,.64,.54-.39,.54,.39-.21-.64Zm3.78,0l.54-.39h-.67l-.21-.64-.21,.64h-.67l.54,.39-.21,.64,.54-.39,.54,.39-.21-.64Zm3.78,0l.54-.39h-.67l-.21-.64-.21,.64h-.67l.54,.39-.21,.64,.54-.39,.54,.39-.21-.64Z"/></g></g></svg>