<svg width="46" height="44" viewBox="0 0 46 44" fill="none" xmlns="http://www.w3.org/2000/svg">
<path d="M41.9465 8.70737C37.7151 4.42316 31.3909 3.54316 26.2626 5.9979L24.0549 3.77474C23.8421 3.56006 23.5894 3.38973 23.3112 3.27352C23.033 3.15732 22.7348 3.0975 22.4336 3.0975C22.1324 3.0975 21.8341 3.15732 21.5559 3.27352C21.2777 3.38973 21.025 3.56006 20.8123 3.77474L20.6283 3.98316C20.3063 1.73684 18.3976 0 16.0979 0C13.5682 0 11.4985 2.08421 11.4985 4.63158C11.4985 4.84 11.4985 5.04842 11.5675 5.23368C10.1647 6.04421 9.1988 7.52632 9.1988 9.26316C9.1988 10.3284 9.56675 11.2779 10.1647 12.0653C9.86966 12.2697 9.62788 12.5427 9.45976 12.8612C9.29164 13.1796 9.20213 13.5341 9.1988 13.8947V17.0211C3.8405 18.92 0 24.0611 0 30.1053C0 37.7705 6.18619 44 13.7982 44C21.4102 44 27.5964 37.7705 27.5964 30.1053C27.5965 27.2338 26.7117 24.4331 25.064 22.0895C23.4164 19.7459 21.0871 17.975 18.3976 17.0211V13.8947C18.3943 13.5341 18.3048 13.1796 18.1366 12.8612C17.9685 12.5427 17.7267 12.2697 17.4317 12.0653C18.0296 11.2779 18.3976 10.3284 18.3976 9.26316C18.3976 9.05474 18.3976 8.84631 18.3286 8.66105C18.7425 8.42947 19.0875 8.10526 19.3865 7.82737C21.5252 8.98526 22.997 11.2547 22.997 13.8947V14.08C23.296 14.2421 23.5719 14.4737 23.8709 14.6589C24.3078 13.6863 24.9057 12.7368 25.6876 11.9726C27.4154 10.2378 29.7558 9.26353 32.1958 9.26353C34.6357 9.26353 36.9761 10.2378 38.7039 11.9726C40.4268 13.7125 41.3942 16.0693 41.3942 18.5263C41.3942 20.9833 40.4268 23.3401 38.7039 25.08C36.8642 26.9326 34.4955 27.7895 32.0348 27.7895C32.1958 28.5305 32.1958 29.3179 32.1958 30.1053C32.1958 30.8926 32.1268 31.6568 32.0348 32.4211C35.6453 32.4211 39.2099 31.1011 41.9465 28.3453C43.2312 27.0582 44.2506 25.5282 44.9463 23.8431C45.6419 22.1581 46 20.3512 46 18.5263C46 16.7015 45.6419 14.8946 44.9463 13.2095C44.2506 11.5245 43.2312 9.99444 41.9465 8.70737ZM16.0979 2.31579C17.3627 2.31579 18.3976 3.35789 18.3976 4.63158C18.3976 5.39579 18.0066 6.04421 17.4317 6.46105C16.6038 5.34947 15.293 4.63158 13.7982 4.63158C13.7982 3.35789 14.8331 2.31579 16.0979 2.31579ZM12.4644 7.43368C13.2923 8.54526 14.6031 9.26316 16.0979 9.26316C16.0979 10.5368 15.063 11.5789 13.7982 11.5789C12.5334 11.5789 11.4985 10.5368 11.4985 9.26316C11.4985 8.49895 11.8894 7.85053 12.4644 7.43368ZM22.997 30.1053C22.997 35.2232 18.8805 39.3684 13.7982 39.3684C8.71586 39.3684 4.5994 35.2232 4.5994 30.1053C4.5994 24.9874 8.71586 20.8421 13.7982 20.8421C18.8805 20.8421 22.997 24.9874 22.997 30.1053Z" fill="white"/>
</svg>
